# xmcd
# 
# Track frame offsets:
#     150
#     18362
#     36717
#     50834
#     69577
#     82700
#     96829
#     115508
#     131648
#     149238
#     167326
#     182857
#     197688
# 
# Disc length: 2832
# 
# Revision: 2
# Processed by: cddbd v1.5.2PL0 Copyright (c) Steve Scherf et al.
# Submitted via: BonkEnc v1.0.6
# 
DISCID=b80b0e0d
DTITLE=Macy Gray - Big
DYEAR=2007
DGENRE=R&B
TTITLE0=Finally Made Me Happy
TTITLE1=Shoo Be Doo
TTITLE2=What I Gotta Do
TTITLE3=Okay
TTITLE4=Glad You´re Here
TTITLE5=Ghetto Love
TTITLE6=One for Me
TTITLE7=Strange Behavior
TTITLE8=Slowly
TTITLE9=Get Out
TTITLE10=Treat Me Like Your Money
TTITLE11=Everybody
TTITLE12=Aeiou
EXTD=Macy Gray - Big YEAR: 2007
EXTT0=
EXTT1=
EXTT2=
EXTT3=
EXTT4=
EXTT5=
EXTT6=
EXTT7=
EXTT8=
EXTT9=
EXTT10=
EXTT11=
EXTT12=
PLAYORDER=
